<svg xmlns="http://www.w3.org/2000/svg" viewBox="0 0 512 512" width="512" height="512">
  <defs>
    <linearGradient id="bg" x1="0" y1="0" x2="1" y2="1">
      <stop offset="0" stop-color="#1d4ed8" />
      <stop offset="1" stop-color="#7c3aed" />
    </linearGradient>
    <linearGradient id="scan" x1="0" y1="0" x2="1" y2="0">
      <stop offset="0" stop-color="#22d3ee" stop-opacity="0" />
      <stop offset="0.5" stop-color="#22d3ee" />
      <stop offset="1" stop-color="#22d3ee" stop-opacity="0" />
    </linearGradient>
  </defs>
  <rect width="512" height="512" fill="url(#bg)" />
  <g transform="rotate(-8 256 256)">
    <rect x="166" y="116" width="180" height="252" rx="16" fill="#fafafa" />
    <rect x="182" y="132" width="148" height="104" rx="8" fill="#e4e4e7" />
    <rect x="182" y="252" width="148" height="12" rx="6" fill="#a1a1aa" />
    <rect x="182" y="276" width="104" height="12" rx="6" fill="#d4d4d8" />
    <rect x="182" y="328" width="60" height="24" rx="6" fill="#16a34a" />
  </g>
  <rect x="96" y="244" width="320" height="10" rx="5" fill="url(#scan)" />
  <path d="M120 96h-24a16 16 0 0 0-16 16v24" fill="none" stroke="#fafafa" stroke-width="20" stroke-linecap="round" />
  <path d="M392 96h24a16 16 0 0 1 16 16v24" fill="none" stroke="#fafafa" stroke-width="20" stroke-linecap="round" />
  <path d="M120 416h-24a16 16 0 0 1-16-16v-24" fill="none" stroke="#fafafa" stroke-width="20" stroke-linecap="round" />
  <path d="M392 416h24a16 16 0 0 0 16-16v-24" fill="none" stroke="#fafafa" stroke-width="20" stroke-linecap="round" />
</svg>
